Coordinates
version=1
nRows=33
nColumns=34
inDegrees=no

Units are S.I. units (second, meters, Newtons, ...)
If the header above contains a line with 'inDegrees', this indicates whether rotational values are in degrees (yes) or radians (no).

endheader
time	pelvis_tilt	pelvis_list	pelvis_rotation	pelvis_tx	pelvis_ty	pelvis_tz	hip_flexion_r	hip_adduction_r	hip_rotation_r	knee_angle_r	ankle_angle_r	subtalar_angle_r	mtp_angle_r	hip_flexion_l	hip_adduction_l	hip_rotation_l	knee_angle_l	ankle_angle_l	subtalar_angle_l	mtp_angle_l	lumbar_extension	lumbar_bending	lumbar_rotation	arm_flex_r	arm_add_r	arm_rot_r	elbow_flex_r	pro_sup_r	arm_flex_l	arm_add_l	arm_rot_l	elbow_flex_l	pro_sup_l
0	-0.0715201	-0.0223784	-0.00576998	-0.121617	0.95952	-0.535539	0.0302189	-0.0366556	-0.0416269	0.098822	0.276391	0.101869	-0.00241763	0.121047	-0.246471	-0.191894	0.238123	0.193035	0.266105	-0.00241763	-0.0450461	0.0572077	-0.0156269	0.0379512	-0.120969	-0.0447264	0.554102	2.09	0.0277963	-0.0751648	-0.0392667	0.525309	2.09
0.01	-0.0716002	-0.0226343	-0.00577137	-0.121651	0.959522	-0.535543	0.0300564	-0.0362729	-0.0409915	0.0982565	0.275638	0.10058	-0.00241763	0.121164	-0.246766	-0.191777	0.238094	0.192885	0.266263	-0.00241763	-0.044832	0.0574687	-0.015495	0.0381744	-0.120921	-0.0455721	0.553354	2.09	0.0278399	-0.0752661	-0.0395568	0.525142	2.09
0.02	-0.0713955	-0.0228461	-0.00599995	-0.121689	0.959538	-0.535546	0.0299206	-0.0360406	-0.0408937	0.0983259	0.275384	0.100506	-0.00241763	0.120858	-0.247016	-0.192028	0.237965	0.192888	0.266387	-0.00241763	-0.0449868	0.0577315	-0.0150639	0.0382701	-0.12105	-0.0460347	0.55313	2.09	0.027849	-0.075575	-0.0390597	0.525272	2.09
0.03	-0.0711623	-0.0229792	-0.00629757	-0.121732	0.959552	-0.535558	0.0299823	-0.0359534	-0.0410238	0.0987766	0.275429	0.101082	-0.00241763	0.120521	-0.247162	-0.192398	0.237876	0.193013	0.266288	-0.00241763	-0.0451801	0.0579708	-0.0145688	0.0383335	-0.121257	-0.0463889	0.553142	2.09	0.0279062	-0.0758652	-0.0383009	0.525384	2.09
0.04	-0.0711519	-0.0230921	-0.00641253	-0.121774	0.959551	-0.535593	0.0302225	-0.0358753	-0.0411444	0.099062	0.275508	0.10145	-0.00241763	0.120551	-0.247239	-0.192512	0.237945	0.193164	0.265946	-0.00241763	-0.0450849	0.0582555	-0.0143636	0.0384373	-0.121536	-0.0464892	0.553112	2.09	0.0280285	-0.0759673	-0.0377885	0.525202	2.09
0.05	-0.0712338	-0.0233668	-0.00636543	-0.121823	0.959551	-0.535647	0.030555	-0.035638	-0.0417201	0.099334	0.275718	0.102055	-0.00241763	0.120786	-0.24746	-0.192353	0.238106	0.19332	0.265668	-0.00241763	-0.0448947	0.0587438	-0.0143058	0.0385161	-0.122119	-0.0456574	0.553182	2.09	0.0282138	-0.0760421	-0.0369441	0.524906	2.09
0.06	-0.0713113	-0.0238598	-0.0063336	-0.121893	0.959563	-0.535703	0.0310446	-0.0351953	-0.0427348	0.0998964	0.275901	0.103139	-0.00241763	0.121063	-0.247942	-0.192088	0.238275	0.193429	0.265637	-0.00241763	-0.0447535	0.0594385	-0.0141353	0.038608	-0.122995	-0.0439587	0.553303	2.09	0.028509	-0.0761469	-0.0356525	0.524584	2.09
0.07	-0.0714822	-0.0243791	-0.00643708	-0.121971	0.959583	-0.535737	0.0316982	-0.0346901	-0.0434251	0.100517	0.275707	0.103902	-0.00241763	0.12143	-0.248492	-0.191925	0.238466	0.193444	0.265667	-0.00241763	-0.0445144	0.060257	-0.0141359	0.038747	-0.124088	-0.0413952	0.553763	2.09	0.0287468	-0.0761166	-0.0351868	0.524143	2.09
0.08	-0.0716989	-0.0247457	-0.00665282	-0.122049	0.959598	-0.535768	0.0324334	-0.0343314	-0.0437884	0.101138	0.275423	0.104414	-0.00241763	0.121843	-0.248867	-0.19195	0.238746	0.193475	0.265539	-0.00241763	-0.044262	0.0611894	-0.0144922	0.0386746	-0.125771	-0.0370102	0.555504	2.09	0.0288135	-0.0760725	-0.03565	0.523762	2.09
0.09	-0.0717826	-0.0249035	-0.00684134	-0.12215	0.959602	-0.535832	0.0331611	-0.0342596	-0.0443431	0.102008	0.275575	0.105356	-0.00241763	0.122176	-0.248952	-0.191939	0.239101	0.193616	0.265157	-0.00241763	-0.0443022	0.0620205	-0.0145207	0.0382771	-0.12818	-0.0308483	0.558267	2.09	0.0291361	-0.0765664	-0.0344065	0.523577	2.09
0.1	-0.0717222	-0.0249615	-0.00698123	-0.122261	0.959601	-0.535899	0.0337145	-0.0342713	-0.0445643	0.102877	0.275813	0.105731	-0.00241763	0.122354	-0.248924	-0.191849	0.239392	0.193757	0.264687	-0.00241763	-0.044604	0.0625346	-0.0136969	0.0380731	-0.130666	-0.0244554	0.560221	2.09	0.0300651	-0.0777989	-0.0300653	0.52326	2.09
0.11	-0.0716191	-0.0252706	-0.00719709	-0.122348	0.959612	-0.535908	0.0340443	-0.0338419	-0.0439189	0.103416	0.275421	0.104559	-0.00241763	0.12241	-0.249292	-0.191997	0.23963	0.193866	0.264692	-0.00241763	-0.0448638	0.0630753	-0.0125973	0.0385913	-0.132702	-0.0188952	0.560664	2.09	0.0312882	-0.0791767	-0.0255173	0.522611	2.09
0.12	-0.0717842	-0.0258716	-0.00751781	-0.122445	0.95963	-0.535895	0.0347963	-0.033069	-0.0433659	0.104117	0.274786	0.103714	-0.00241763	0.122826	-0.250044	-0.192244	0.240034	0.194003	0.265012	-0.00241763	-0.0447232	0.0640245	-0.0120802	0.0397412	-0.134699	-0.0136066	0.560915	2.09	0.0324888	-0.0800773	-0.0238238	0.521705	2.09
0.13	-0.0726939	-0.0262177	-0.00796478	-0.122613	0.959615	-0.535959	0.036934	-0.0328101	-0.0438235	0.10573	0.275016	0.105429	-0.00241763	0.12423	-0.250362	-0.191998	0.240639	0.193963	0.264285	-0.00241763	-0.0438801	0.0651516	-0.012372	0.0412772	-0.137472	-0.00715291	0.562381	2.09	0.0338867	-0.0804735	-0.024201	0.520097	2.09
0.14	-0.0739817	-0.0261796	-0.00855039	-0.122848	0.959579	-0.536082	0.0399996	-0.0331364	-0.0449347	0.108128	0.276068	0.108788	-0.00241763	0.126132	-0.250082	-0.191244	0.241271	0.19354	0.26215	-0.00241763	-0.0428353	0.066179	-0.0130201	0.0432211	-0.140915	-0.000512196	0.565192	2.09	0.0359021	-0.0805724	-0.0247511	0.51748	2.09
0.15	-0.074522	-0.0263576	-0.00897976	-0.123103	0.959593	-0.536177	0.0422856	-0.0331406	-0.0462963	0.11049	0.276786	0.111458	-0.00241763	0.127337	-0.250052	-0.190399	0.241945	0.192916	0.260155	-0.00241763	-0.0426883	0.0672336	-0.0134427	0.0455662	-0.144066	0.00325968	0.568447	2.09	0.0387326	-0.0805023	-0.0259592	0.514873	2.09
0.16	-0.0740963	-0.0269216	-0.00903967	-0.123366	0.959678	-0.536231	0.0433349	-0.0326103	-0.0478495	0.112505	0.276735	0.11291	-0.00241763	0.127731	-0.250552	-0.189665	0.242826	0.192324	0.259369	-0.00241763	-0.0436147	0.0683611	-0.0135261	0.0481002	-0.147038	0.00552391	0.571831	2.09	0.0421736	-0.0806639	-0.028599	0.513634	2.09
0.17	-0.0732789	-0.0274588	-0.00907103	-0.123659	0.95979	-0.536257	0.0439746	-0.032071	-0.0491243	0.114518	0.276502	0.114024	-0.00241763	0.127858	-0.25115	-0.189385	0.243947	0.191972	0.259274	-0.00241763	-0.0451253	0.0693788	-0.0133919	0.0507693	-0.150841	0.0108648	0.576495	2.09	0.0459882	-0.0814245	-0.0313843	0.513904	2.09
0.18	-0.0721891	-0.0277457	-0.00935976	-0.124015	0.959904	-0.536255	0.0448448	-0.0318569	-0.0507843	0.117456	0.277655	0.11757	-0.00241763	0.127684	-0.2515	-0.189436	0.245093	0.19189	0.258356	-0.00241763	-0.0472288	0.0701744	-0.0131417	0.0540766	-0.155209	0.019056	0.582911	2.09	0.050453	-0.0821633	-0.0340937	0.514836	2.09
0.19	-0.0709629	-0.0282531	-0.00996195	-0.124481	0.960031	-0.536216	0.0456837	-0.0312497	-0.0512286	0.120211	0.277926	0.118971	-0.00241763	0.127472	-0.252132	-0.189444	0.246374	0.191847	0.257031	-0.00241763	-0.0498376	0.0712905	-0.0127096	0.0586828	-0.159386	0.0269574	0.589756	2.09	0.055574	-0.0828198	-0.0371308	0.517081	2.09
0.2	-0.0702869	-0.0287892	-0.0105118	-0.125072	0.960148	-0.536187	0.0476565	-0.0306176	-0.0517606	0.123722	0.278255	0.120281	-0.00241763	0.128275	-0.252854	-0.188882	0.248029	0.191097	0.256351	-0.00241763	-0.0520804	0.0725997	-0.0123003	0.0644695	-0.163675	0.033903	0.596655	2.09	0.0600657	-0.0857178	-0.036141	0.524018	2.09
0.21	-0.0702173	-0.0292187	-0.0109571	-0.125754	0.96023	-0.536156	0.0504938	-0.0300604	-0.0517288	0.127499	0.278389	0.120673	-0.00241763	0.130327	-0.253738	-0.189015	0.2505	0.190359	0.257774	-0.00241763	-0.0537647	0.0738337	-0.0117646	0.0707962	-0.168389	0.0399407	0.605358	2.09	0.0636352	-0.091436	-0.0282832	0.536214	2.09
0.22	-0.0700842	-0.0295231	-0.0115945	-0.126465	0.960306	-0.536119	0.0530505	-0.0295714	-0.0505757	0.130753	0.278079	0.119637	-0.00241763	0.132466	-0.25459	-0.190289	0.253347	0.190303	0.259522	-0.00241763	-0.0555871	0.0748721	-0.010939	0.0775076	-0.173458	0.0458201	0.616844	2.09	0.068491	-0.0960503	-0.0210683	0.548359	2.09
0.23	-0.0695785	-0.0297043	-0.0124654	-0.127215	0.960411	-0.536106	0.0552979	-0.0292727	-0.0493888	0.13395	0.277678	0.118734	-0.00241763	0.134058	-0.255079	-0.191252	0.255924	0.190045	0.259288	-0.00241763	-0.0580212	0.0758541	-0.00993312	0.0850356	-0.179205	0.0533213	0.630268	2.09	0.0759499	-0.0975793	-0.0198254	0.557993	2.09
0.24	-0.0690185	-0.029628	-0.0134086	-0.12811	0.960513	-0.536093	0.0584339	-0.0293942	-0.0495738	0.138616	0.27832	0.120223	-0.00241763	0.135905	-0.255253	-0.191701	0.258723	0.189052	0.258405	-0.00241763	-0.0609408	0.0766214	-0.0086923	0.093831	-0.185613	0.061548	0.644847	2.09	0.0846044	-0.099158	-0.0184673	0.569807	2.09
0.25	-0.0687168	-0.0293492	-0.0145932	-0.129185	0.960569	-0.536029	0.0630361	-0.0297567	-0.050653	0.145159	0.280145	0.123523	-0.00241763	0.138655	-0.255536	-0.193141	0.26247	0.188293	0.259225	-0.00241763	-0.0640101	0.0770572	-0.00706392	0.10411	-0.192097	0.0683254	0.660461	2.09	0.0936282	-0.102348	-0.0137458	0.586177	2.09
0.26	-0.0685279	-0.0293715	-0.0152816	-0.130339	0.960605	-0.536023	0.0681274	-0.0297841	-0.0524287	0.152226	0.281772	0.126504	-0.00241763	0.142161	-0.256185	-0.194369	0.266935	0.188151	0.260932	-0.00241763	-0.0671266	0.0778883	-0.00638369	0.116101	-0.198577	0.0756813	0.676921	2.08821	0.103715	-0.105374	-0.0101589	0.604387	2.09
0.27	-0.068589	-0.0296463	-0.0145219	-0.131611	0.960619	-0.536182	0.0736472	-0.0296912	-0.0557319	0.15949	0.283038	0.129251	-0.00241763	0.146889	-0.25669	-0.192663	0.271834	0.18765	0.261039	-0.00241763	-0.0702434	0.0793685	-0.00784295	0.130184	-0.205191	0.086384	0.694063	2.08204	0.114941	-0.108044	-0.00822664	0.624012	2.09
0.28	-0.0698974	-0.029304	-0.0141746	-0.133257	0.960507	-0.536302	0.0820896	-0.0302838	-0.0586185	0.168889	0.285479	0.132713	-0.00241763	0.153774	-0.256523	-0.190131	0.277477	0.186358	0.25926	-0.00241763	-0.0728669	0.0803227	-0.00889583	0.146429	-0.211458	0.0969891	0.71162	2.08087	0.127558	-0.111518	-0.00442239	0.645991	2.09
0.29	-0.072618	-0.0285269	-0.0161294	-0.135269	0.960246	-0.536178	0.0938831	-0.0309601	-0.0585781	0.180528	0.288729	0.135479	-0.00241763	0.162357	-0.25658	-0.19087	0.284073	0.185189	0.258079	-0.00241763	-0.0747647	0.0804749	-0.00694353	0.164175	-0.217012	0.103552	0.729683	2.08625	0.142694	-0.11507	0.000832266	0.668176	2.09
0.3	-0.0751776	-0.0284297	-0.0182886	-0.137304	0.959971	-0.535998	0.105345	-0.030665	-0.0581776	0.191683	0.29108	0.136945	-0.00241763	0.171128	-0.257844	-0.193666	0.291536	0.184984	0.259495	-0.00241763	-0.0768775	0.0810464	-0.00447035	0.183045	-0.222223	0.108383	0.748677	2.09	0.159993	-0.117555	0.0046142	0.689848	2.09
0.31	-0.0769429	-0.0288507	-0.0186467	-0.13929	0.959731	-0.535979	0.115064	-0.0301184	-0.0602975	0.201587	0.292826	0.139059	-0.00241763	0.180049	-0.259556	-0.195116	0.299905	0.185432	0.262574	-0.00241763	-0.0797969	0.0822307	-0.00436035	0.203627	-0.227528	0.115835	0.768717	2.09	0.177959	-0.119405	0.00617205	0.713521	2.09
0.32	-0.0792883	-0.0287993	-0.0182429	-0.141443	0.959412	-0.536081	0.125874	-0.0305164	-0.0637443	0.212219	0.295739	0.143629	-0.00241763	0.190524	-0.260526	-0.194688	0.309005	0.185532	0.264562	-0.00241763	-0.0824703	0.0832012	-0.0056135	0.22625	-0.232815	0.125745	0.789383	2.08856	0.196893	-0.121064	0.00671517	0.738657	2.09
